<?xml version="1.0" encoding="UTF-8" standalone="no"?>
<!-- Created with Inkscape (http://www.inkscape.org/) -->
<svg
   xmlns:dc="http://purl.org/dc/elements/1.1/"
   xmlns:cc="http://web.resource.org/cc/"
   xmlns:rdf="http://www.w3.org/1999/02/22-rdf-syntax-ns#"
   xmlns:svg="http://www.w3.org/2000/svg"
   xmlns="http://www.w3.org/2000/svg"
   xmlns:sodipodi="http://sodipodi.sourceforge.net/DTD/sodipodi-0.dtd"
   xmlns:inkscape="http://www.inkscape.org/namespaces/inkscape"
   width="362.61737"
   height="44.48"
   id="svg2"
   sodipodi:version="0.32"
   inkscape:version="0.45.1"
   sodipodi:docbase="/home/jonas"
   sodipodi:docname="southpole_logo_fontpath.svg"
   inkscape:output_extension="org.inkscape.output.svg.inkscape"
   version="1.0">
  <defs
     id="defs4" />
  <sodipodi:namedview
     id="base"
     pagecolor="#ffffff"
     bordercolor="#666666"
     borderopacity="1.0"
     gridtolerance="10000"
     guidetolerance="10"
     objecttolerance="10"
     inkscape:pageopacity="0.0"
     inkscape:pageshadow="2"
     inkscape:zoom="2.8"
     inkscape:cx="165.15427"
     inkscape:cy="88.361306"
     inkscape:document-units="px"
     inkscape:current-layer="layer1"
     inkscape:window-width="1590"
     inkscape:window-height="1121"
     inkscape:window-x="0"
     inkscape:window-y="25"
     inkscape:showpageshadow="true"
     showborder="true"
     showguides="false"
     showgrid="false" />
  <metadata
     id="metadata7">
    <rdf:RDF>
      <cc:Work
         rdf:about="">
        <dc:format>image/svg+xml</dc:format>
        <dc:type
           rdf:resource="http://purl.org/dc/dcmitype/StillImage" />
      </cc:Work>
    </rdf:RDF>
  </metadata>
  <g
     inkscape:label="Layer 1"
     inkscape:groupmode="layer"
     id="layer1"
     transform="translate(-104.48273,-405.08008)">
    <path
       style="font-size:40px;font-style:normal;font-variant:normal;font-weight:normal;font-stretch:normal;text-align:start;line-height:125%;writing-mode:lr-tb;text-anchor:start;fill:#000000;fill-opacity:1;stroke:none;stroke-width:1pt;stroke-linecap:butt;stroke-linejoin:miter;stroke-opacity:1;font-family:SerpentineDBol"
       d="M 128.85773,413.98999 L 129.79523,419.41968 C 128.79261,418.71657 127.75745,418.36501 126.68977,418.36499 L 125.49836,418.38452 L 116.27961,418.38452 C 115.60251,418.38454 115.12725,418.48871 114.85383,418.69702 C 114.5934,418.89236 114.46319,419.25043 114.4632,419.77124 L 114.4632,420.68921 C 114.46319,421.37933 114.58689,421.82204 114.8343,422.01733 C 115.0947,422.21266 115.68064,422.31032 116.59211,422.3103 L 123.17414,422.3103 C 124.86683,422.31032 126.08427,422.39496 126.82648,422.56421 C 127.56865,422.72048 128.19365,423.03949 128.70148,423.52124 C 129.70406,424.43271 130.21838,425.87152 130.24445,427.83765 L 130.24445,435.1228 C 130.19234,436.95874 129.60641,438.36499 128.48664,439.34155 C 127.87464,439.86239 127.21709,440.21395 126.51398,440.39624 C 125.82386,440.56551 124.71058,440.65015 123.17414,440.65015 L 105.49836,440.65015 L 104.56086,435.31812 C 105.30305,435.72177 106.01268,435.98218 106.68977,436.09937 C 107.36685,436.20354 108.58429,436.25562 110.34211,436.25562 L 118.09602,436.25562 C 119.02048,436.25562 119.57386,436.22307 119.75617,436.15796 C 119.97751,436.0538 120.12074,435.91708 120.18586,435.7478 C 120.26397,435.57854 120.30303,435.27255 120.30305,434.82983 L 120.30305,433.98999 C 120.30303,433.35198 120.21839,432.92229 120.04914,432.70093 C 119.89287,432.47958 119.57386,432.3689 119.09211,432.3689 L 111.55305,432.3689 C 109.95148,432.3689 108.75356,432.29078 107.9593,432.13452 C 107.16502,431.97828 106.52049,431.69182 106.0257,431.27515 C 105.0231,430.4288 104.50878,428.95094 104.48273,426.84155 L 104.48273,419.51733 C 104.53482,417.68142 105.12075,416.27517 106.24055,415.29858 C 106.85252,414.76476 107.50356,414.41319 108.19367,414.2439 C 108.89679,414.07465 110.01658,413.99002 111.55305,413.98999 L 128.85773,413.98999 M 139.95148,413.98999 L 155.43977,413.98999 C 156.46839,413.99002 157.46448,414.18533 158.42805,414.57593 C 159.39156,414.96658 160.1663,415.49392 160.75227,416.15796 C 161.74182,417.21267 162.24312,419.03558 162.25617,421.62671 L 162.25617,433.01343 C 162.24312,435.60458 161.74182,437.42749 160.75227,438.48218 C 160.1663,439.14624 159.39156,439.67358 158.42805,440.06421 C 157.46448,440.45483 156.46839,440.65015 155.43977,440.65015 L 139.95148,440.65015 C 138.92283,440.65015 137.92674,440.45483 136.9632,440.06421 C 135.99966,439.67358 135.22492,439.14624 134.63898,438.48218 C 133.6494,437.42749 133.1481,435.60458 133.13508,433.01343 L 133.13508,421.62671 C 133.1481,419.03558 133.6494,417.21267 134.63898,416.15796 C 135.22492,415.49392 135.99966,414.96658 136.9632,414.57593 C 137.92674,414.18533 138.92283,413.99002 139.95148,413.98999 M 143.2718,421.50952 L 143.2718,433.13062 C 143.27179,434.28948 143.38246,435.06421 143.60383,435.45483 C 144.00746,436.00171 144.77569,436.26864 145.90852,436.25562 L 149.48273,436.25562 C 150.57647,436.25562 151.2861,436.06031 151.61164,435.66968 C 151.95016,435.27906 152.11943,434.4327 152.11945,433.13062 L 152.11945,421.50952 C 152.11943,420.35069 152.00876,419.57595 151.78742,419.1853 C 151.38376,418.63845 150.61553,418.37152 149.48273,418.38452 L 145.53742,418.38452 C 144.63897,418.38454 144.0335,418.59939 143.72102,419.02905 C 143.42152,419.44574 143.27179,420.27256 143.2718,421.50952 M 177.3343,413.98999 C 176.64418,414.87543 176.27309,416.19054 176.22102,417.9353 L 176.22102,433.13062 C 176.221,434.28948 176.33168,435.06421 176.55305,435.45483 C 176.95668,436.00171 177.72491,436.26864 178.85773,436.25562 L 187.08039,436.25562 C 188.17412,436.25562 188.88375,436.06031 189.2093,435.66968 C 189.54781,435.27906 189.71708,434.4327 189.71711,433.13062 L 189.71711,417.9353 C 189.665,416.20356 189.29391,414.88845 188.60383,413.98999 L 195.22492,413.98999 C 194.53479,414.87543 194.16369,416.19054 194.11164,417.9353 L 194.11164,433.01343 C 194.11161,434.40666 193.99442,435.4939 193.76008,436.27515 C 193.52567,437.04338 193.09599,437.77906 192.47102,438.48218 C 191.23401,439.90145 189.50875,440.6241 187.29523,440.65015 L 172.9007,440.65015 C 170.68716,440.6241 168.9619,439.90145 167.72492,438.48218 C 167.09992,437.79208 166.67023,437.0564 166.43586,436.27515 C 166.20148,435.4939 166.0843,434.40666 166.0843,433.01343 L 166.0843,417.9353 C 166.03221,416.2296 165.66112,414.9145 164.97102,413.98999 L 177.3343,413.98999 M 203.15461,440.65015 C 203.84471,439.76473 204.2158,438.44963 204.26789,436.70483 L 204.26789,418.38452 L 199.56086,418.38452 C 198.61034,418.38454 197.90721,418.43663 197.45148,418.54077 C 196.99575,418.64496 196.51398,418.8598 196.00617,419.1853 L 196.80695,413.98999 L 221.86555,413.98999 L 222.66633,419.1853 C 222.15849,418.8598 221.67672,418.64496 221.22102,418.54077 C 220.76526,418.43663 220.06214,418.38454 219.11164,418.38452 L 214.40461,418.38452 L 214.40461,436.70483 C 214.45667,438.44963 214.82777,439.76473 215.51789,440.65015 L 203.15461,440.65015 M 242.9593,429.20483 L 235.22492,429.20483 L 235.22492,436.6853 C 235.27699,438.4301 235.64809,439.75171 236.3382,440.65015 L 223.97492,440.65015 C 224.66502,439.72567 225.03612,438.40405 225.0882,436.6853 L 225.0882,417.9353 C 225.03612,416.2296 224.66502,414.9145 223.97492,413.98999 L 236.3382,413.98999 C 235.64809,414.87543 235.27699,416.19054 235.22492,417.9353 L 235.22492,424.8103 L 242.9593,424.8103 L 242.9593,417.9353 C 242.90719,416.19054 242.5361,414.87543 241.84602,413.98999 L 254.2093,413.98999 C 253.51916,414.87543 253.14807,416.19054 253.09602,417.9353 L 253.09602,436.6853 C 253.14807,438.4301 253.51916,439.75171 254.2093,440.65015 L 241.84602,440.65015 C 242.5361,439.75171 242.90719,438.4301 242.9593,436.6853 L 242.9593,429.20483"
       id="text2160" />
    <g
       id="g3637"
       transform="translate(-7.1428571,1.386469)">
      <g
         transform="translate(-75.004717,7.6516102)"
         id="g3564"
         style="fill:#000000">
        <path
           id="path3566"
           d="M 393.153,410.519 L 413.937,440.519 L 372.368,440.519 L 393.153,410.519 z " />
      </g>
      <g
         transform="translate(-75.004717,7.6516102)"
         id="g3568"
         style="fill:#000000">
        <path
           id="path3570"
           d="M 363.057,410.522 L 383.842,440.522 L 342.272,440.522 L 363.057,410.522 z " />
      </g>
      <g
         transform="translate(-75.004717,7.6516102)"
         id="g3572"
         style="fill:#660000">
        <path
           id="path3574"
           d="M 378.286,426.042 L 357.501,396.042 L 399.071,396.043 L 378.286,426.042 z " />
      </g>
      <g
         transform="translate(-75.004717,7.6516102)"
         id="g3576"
         style="fill:#660000">
        <path
           id="path3578"
           d="M 408.381,426.042 L 387.597,396.042 L 429.166,396.043 L 408.381,426.042 z " />
      </g>
    </g>
    <path
       style="font-size:40px;font-style:normal;font-variant:normal;font-weight:normal;font-stretch:normal;text-align:start;line-height:125%;writing-mode:lr-tb;text-anchor:start;fill:#000000;fill-opacity:1;stroke:none;stroke-width:1pt;stroke-linecap:butt;stroke-linejoin:miter;stroke-opacity:1;font-family:SerpentineDBol"
       d="M 364.09229,431.07983 L 364.09229,436.6853 C 364.14436,438.4301 364.52196,439.75171 365.2251,440.65015 L 352.95947,440.65015 C 353.64957,439.72567 354.02067,438.40405 354.07275,436.6853 L 354.07275,417.9353 C 354.02067,416.2296 353.64957,414.9145 352.95947,413.98999 L 374.77588,413.98999 C 376.28627,413.99002 377.41908,414.08116 378.17432,414.26343 C 378.94252,414.44575 379.60658,414.7908 380.1665,415.29858 C 381.2472,416.23611 381.8071,417.64236 381.84619,419.51733 L 381.84619,425.57202 C 381.8071,427.43401 381.2472,428.83375 380.1665,429.77124 C 379.60658,430.27906 378.94252,430.62411 378.17432,430.8064 C 377.41908,430.9887 376.28627,431.07984 374.77588,431.07983 L 364.09229,431.07983 M 364.09229,426.6853 L 369.20947,426.6853 C 370.35529,426.68532 371.07794,426.50303 371.37744,426.13843 C 371.68992,425.77386 371.84617,424.921 371.84619,423.57983 L 371.84619,421.48999 C 371.84617,420.18793 371.71596,419.34808 371.45557,418.97046 C 371.19513,418.57986 370.62221,418.38454 369.73682,418.38452 L 364.09229,418.38452 L 364.09229,426.6853 M 391.27979,413.98999 L 406.76807,413.98999 C 407.79669,413.99002 408.79278,414.18533 409.75635,414.57593 C 410.71986,414.96658 411.4946,415.49392 412.08057,416.15796 C 413.07012,417.21267 413.57142,419.03558 413.58447,421.62671 L 413.58447,433.01343 C 413.57142,435.60458 413.07012,437.42749 412.08057,438.48218 C 411.4946,439.14624 410.71986,439.67358 409.75635,440.06421 C 408.79278,440.45483 407.79669,440.65015 406.76807,440.65015 L 391.27979,440.65015 C 390.25113,440.65015 389.25504,440.45483 388.2915,440.06421 C 387.32796,439.67358 386.55322,439.14624 385.96729,438.48218 C 384.9777,437.42749 384.4764,435.60458 384.46338,433.01343 L 384.46338,421.62671 C 384.4764,419.03558 384.9777,417.21267 385.96729,416.15796 C 386.55322,415.49392 387.32796,414.96658 388.2915,414.57593 C 389.25504,414.18533 390.25113,413.99002 391.27979,413.98999 M 394.6001,421.50952 L 394.6001,433.13062 C 394.60009,434.28948 394.71076,435.06421 394.93213,435.45483 C 395.33576,436.00171 396.10399,436.26864 397.23682,436.25562 L 400.81104,436.25562 C 401.90477,436.25562 402.6144,436.06031 402.93994,435.66968 C 403.27846,435.27906 403.44773,434.4327 403.44775,433.13062 L 403.44775,421.50952 C 403.44773,420.35069 403.33706,419.57595 403.11572,419.1853 C 402.71206,418.63845 401.94383,418.37152 400.81104,418.38452 L 396.86572,418.38452 C 395.96727,418.38454 395.3618,418.59939 395.04932,419.02905 C 394.74983,419.44574 394.60009,420.27256 394.6001,421.50952 M 440.7915,435.25952 L 439.93213,440.65015 L 416.63135,440.65015 C 417.32145,439.72567 417.69254,438.41057 417.74463,436.70483 L 417.74463,417.9353 C 417.69254,416.2296 417.32145,414.9145 416.63135,413.98999 L 428.99463,413.98999 C 428.30451,414.87543 427.93342,416.19054 427.88135,417.9353 L 427.88135,436.25562 L 437.4126,436.25562 C 438.85789,436.22958 439.98419,435.89755 440.7915,435.25952 M 453.42822,418.38452 L 453.42822,424.84937 L 461.59229,424.84937 C 463.21987,424.84938 464.48289,424.64756 465.38135,424.2439 L 465.38135,429.94702 C 464.84747,429.50432 463.83836,429.26995 462.354,429.2439 L 453.42822,429.2439 L 453.42822,436.25562 L 463.31104,436.25562 C 464.20945,436.25562 465.47247,435.94963 467.1001,435.33765 L 466.22119,440.65015 L 442.17822,440.65015 C 442.86832,439.72567 443.23942,438.41057 443.2915,436.70483 L 443.2915,417.9353 C 443.23942,416.2296 442.86832,414.9145 442.17822,413.98999 L 465.65479,413.98999 L 466.43604,418.98999 C 465.62872,418.71657 464.99721,418.55381 464.5415,418.50171 C 464.09877,418.43663 463.16127,418.39756 461.729,418.38452 L 453.42822,418.38452"
       id="text3629" />
  </g>
</svg>
